<svg width="713" height="173" viewBox="0 0 713 173" fill="none" xmlns="http://www.w3.org/2000/svg">
<path fill-rule="evenodd" clip-rule="evenodd" d="M394.971 170.743V154.393C390.165 159.244 384.679 163.204 378.521 166.266C371.012 170.083 363.131 172 354.899 172C345.731 172 337.136 170.366 329.135 167.081L329.103 167.067C321.118 163.617 314.163 158.779 308.252 152.562C302.193 146.366 297.429 139.305 293.966 131.387L293.946 131.342C290.647 123.23 289 114.689 289 105.734C289 96.7782 290.647 88.3156 293.952 80.3637L293.96 80.3452C297.422 72.2584 302.187 65.1077 308.252 58.9051C314.165 52.6842 321.126 47.928 329.119 44.6443C337.124 41.1877 345.724 39.4667 354.899 39.4667C363.927 39.4667 372.146 41.2797 379.517 44.9416C385.416 47.8065 390.571 51.536 394.971 56.1264V0H421.053V170.743H394.971ZM339.673 69.3018C334.863 71.2139 330.71 73.9946 327.193 77.6492C323.655 81.3255 320.831 85.6502 318.725 90.6403L318.716 90.6612C316.63 95.4459 315.588 100.464 315.588 105.734C315.588 116.445 319.427 125.778 327.19 133.815C330.718 137.481 334.892 140.356 339.723 142.437C344.54 144.511 349.593 145.549 354.899 145.549C360.207 145.549 365.26 144.511 370.077 142.437L370.098 142.428C375.097 140.345 379.343 137.472 382.86 133.818C390.623 125.78 394.464 116.445 394.464 105.734C394.464 100.464 393.423 95.4459 391.336 90.6612L391.327 90.6403C389.222 85.6502 386.398 81.3255 382.86 77.6492C379.354 74.0057 375.125 71.225 370.147 69.3096L370.076 69.2825C365.259 67.2079 360.207 66.1692 354.899 66.1692C349.593 66.1692 344.54 67.2066 339.723 69.2811L339.673 69.3018ZM517.238 69.7839C512.429 67.7124 507.291 66.6719 501.808 66.6719C491.022 66.6719 481.809 70.4902 474.071 78.1824C470.375 81.8555 467.478 86.1706 465.38 91.1429C463.286 96.108 462.243 101.218 462.243 106.488C462.243 111.757 463.286 116.776 465.371 121.559C467.467 126.367 470.365 130.606 474.071 134.29C477.785 137.982 481.973 140.863 486.642 142.945C491.455 145.016 496.505 146.052 501.808 146.052C507.115 146.052 512.26 145.014 517.258 142.931C522.258 140.847 526.504 137.976 530.021 134.32C533.569 130.633 536.394 126.384 538.497 121.559C540.583 116.776 541.626 111.757 541.626 106.488C541.626 101.218 540.583 96.108 538.488 91.1429C536.383 86.1528 533.559 81.8281 530.021 78.1518C526.514 74.5085 522.286 71.7278 517.307 69.8123L517.238 69.7839ZM501.808 172C492.953 172 484.517 170.273 476.517 166.816C468.544 163.371 461.515 158.628 455.441 152.591C449.367 146.553 444.594 139.566 441.127 131.639C437.647 123.684 435.908 115.294 435.908 106.488C435.908 97.5185 437.645 88.9665 441.12 80.8478C444.587 72.752 449.36 65.6743 455.441 59.6304C461.518 53.5903 468.553 48.928 476.533 45.6495C484.528 42.1972 492.958 40.4722 501.808 40.4722C510.821 40.4722 519.415 42.1952 527.575 45.644C535.724 48.9207 542.85 53.5833 548.933 59.6304C555.017 65.6776 559.71 72.7611 563.008 80.8639C566.478 88.9777 568.214 97.5249 568.214 106.488C568.214 115.288 566.477 123.672 563.002 131.621C559.703 139.556 555.011 146.55 548.933 152.591C542.853 158.634 535.733 163.378 527.591 166.821C519.426 170.275 510.826 172 501.808 172Z" fill="white"/>
<path fill-rule="evenodd" clip-rule="evenodd" d="M587.528 82.9371C590.576 74.8451 595.172 67.6386 601.301 61.331C607.54 54.9088 614.736 49.9749 622.875 46.5464C630.88 43.0086 639.18 41.1586 647.757 41.0097C656.334 40.8609 664.693 42.4219 672.818 45.6798C681.073 48.824 688.437 53.5051 694.899 59.7068C701.244 65.7978 706.09 72.8405 709.42 80.8219C710.472 83.2215 711.371 85.6557 712.116 88.1229C712.334 88.8447 712.195 89.6268 711.743 90.2317C711.29 90.8359 710.576 91.1927 709.818 91.1927H685.806C684.883 91.1927 684.042 90.6659 683.643 89.8387C681.737 85.8804 679.168 82.3483 675.925 79.2358C672.199 75.6594 667.879 72.9199 662.944 71.0128C657.977 69.0929 653 68.1314 648.001 68.1077C643.061 68.0843 638.238 69.1471 633.512 71.3216L633.425 71.3613C628.704 73.3115 624.488 76.187 620.767 80.0164C613.454 87.5446 609.907 96.5509 610.093 107.18C610.182 112.251 611.266 117.202 613.36 122.047C615.45 126.882 618.355 131.078 622.082 134.654C625.806 138.23 630.06 140.905 634.855 142.694C639.679 144.494 644.644 145.347 649.765 145.258C654.899 145.169 659.777 144.199 664.415 142.352C669.139 140.398 673.291 137.579 676.884 133.879C679.071 131.63 680.943 129.165 682.505 126.483C682.934 125.746 683.725 125.292 684.581 125.292H708.752C709.529 125.292 710.258 125.667 710.707 126.296C711.157 126.926 711.272 127.734 711.016 128.463C710.785 129.118 710.544 129.772 710.293 130.425C707.129 138.638 702.417 145.964 696.172 152.392C690.038 158.705 682.946 163.525 674.908 166.835C666.904 170.13 658.616 171.856 650.056 172.004C641.497 172.153 633.153 170.715 625.039 167.7C616.89 164.671 609.632 160.1 603.281 154.004C596.815 147.797 591.848 140.639 588.399 132.541C584.96 124.471 583.16 116.17 583.01 107.651C582.86 99.1382 584.369 90.8947 587.528 82.9371Z" fill="white"/>
<path fill-rule="evenodd" clip-rule="evenodd" d="M4.51361 83.2101C7.55117 75.1443 12.1328 67.9607 18.2412 61.6735C24.4605 55.2724 31.6329 50.3544 39.7459 46.9368C47.7254 43.4106 55.9983 41.5664 64.5476 41.4181C73.0969 41.2698 81.43 42.8258 89.5282 46.0731C97.7565 49.2071 105.097 53.8732 111.537 60.0546C117.862 66.1259 122.693 73.1461 126.012 81.1013C127.378 84.2191 128.486 87.3933 129.332 90.6233C129.522 91.3497 129.363 92.1228 128.902 92.7165C128.44 93.3111 127.727 93.6592 126.971 93.6592H103.408C102.418 93.6592 101.526 93.0638 101.152 92.1531L101.054 91.9189C99.0991 87.2427 96.2756 83.134 92.5695 79.5764C88.8634 76.0197 84.5663 73.2942 79.6576 71.3971C74.7153 69.4869 69.7641 68.5304 64.7924 68.5068C59.8788 68.4835 55.0822 69.5404 50.3807 71.7034L50.2931 71.7438C45.5979 73.6835 41.4034 76.5438 37.7022 80.3528C30.4267 87.8413 26.8986 96.7998 27.0843 107.373C27.1729 112.418 28.251 117.342 30.3346 122.163C32.4135 126.973 35.3035 131.147 39.0096 134.703C42.7155 138.261 46.9456 140.922 51.7151 142.701C56.5149 144.492 61.4539 145.34 66.5476 145.252C71.6552 145.163 76.5082 144.198 81.1222 142.361C85.8205 140.417 89.9498 137.613 93.5249 133.934C95.109 132.302 96.5269 130.559 97.7811 128.701C98.2338 128.031 98.9935 127.628 99.8065 127.628H124.46C125.265 127.628 126.018 128.023 126.473 128.684C126.927 129.345 127.024 130.186 126.731 130.932C123.58 138.962 118.932 146.136 112.807 152.441C106.693 158.733 99.6231 163.538 91.61 166.837C83.633 170.122 75.3711 171.841 66.8398 171.99C58.3086 172.138 49.9918 170.705 41.904 167.7C33.7805 164.68 26.5464 160.124 20.2155 154.048C13.77 147.861 8.81935 140.725 5.38065 132.654C1.9544 124.611 0.159239 116.336 0.0100793 107.844C-0.138917 99.3591 1.36406 91.1417 4.51361 83.2101Z" fill="white"/>
<path fill-rule="evenodd" clip-rule="evenodd" d="M208.5 146C230.315 146 248 128.315 248 106.5C248 84.6848 230.315 67 208.5 67C186.685 67 169 84.6848 169 106.5C169 128.315 186.685 146 208.5 146ZM208.5 172C244.675 172 274 142.675 274 106.5C274 70.3253 244.675 41 208.5 41C172.325 41 143 70.3253 143 106.5C143 142.675 172.325 172 208.5 172Z" fill="white"/>
</svg>
